<?xml version="1.0" encoding="utf-8"?>
<!-- Generator: Adobe Illustrator 19.2.1, SVG Export Plug-In . SVG Version: 6.00 Build 0)  -->
<!DOCTYPE svg PUBLIC "-//W3C//DTD SVG 1.1//EN" "http://www.w3.org/Graphics/SVG/1.1/DTD/svg11.dtd">
<svg version="1.1" id="Layer_1" xmlns="http://www.w3.org/2000/svg" xmlns:xlink="http://www.w3.org/1999/xlink" x="0px" y="0px"
	 viewBox="0 0 12.9 16.6" style="enable-background:new 0 0 12.9 16.6;" xml:space="preserve">
<style type="text/css">
	.st0{fill:#E8E2D5;}
</style>
<title>8B41BD6A-C263-4D01-B013-90002C83BBD5</title>
<desc>Created with sketchtool.</desc>
<g id="Symbols">
	<g>
		<path id="Fill-1" class="st0" d="M12.9,14.3c0.1-0.9-0.4-1.8-1-2.5c-0.8-1.1-1.7-1.3-2.9-0.7l0,0l0,0c-0.2,0.1-0.8,0.5-0.9,0.5
			c-0.1,0.1-0.3,0.1-0.5,0c0,0-0.9-0.5-2.3-2.6C4.1,6.9,4,5.9,4,5.9c0-0.1,0.1-0.3,0.2-0.4C4.3,5.4,4.9,5,5,4.9l0,0
			C6,4,6.2,3.2,5.6,2c-0.4-0.8-1-1.7-1.9-1.9C3-0.1,2.2,0.1,1.3,0.7C0.5,1.2-0.1,2.3,0,3.4c0,0.3-0.1,3.5,2.5,7.5s5.6,5.3,5.8,5.4
			c0.3,0.1,0.5,0.2,0.8,0.3c0.8,0.2,1.6,0,2.2-0.4C12.3,15.6,12.8,15,12.9,14.3"/>
	</g>
</g>
</svg>
